# xmcd
#
# Track frame offsets:
#	150
#	17077
#	35504
#	47721
#	58471
#	73644
#	84813
#	96386
#	114956
#	131944
#	145432
#	161754
#	171357
#	184249
#	201191
#
# Disc length: 2821 seconds
#
# Revision: 3
# Processed by: cddbd v1.5.2PL0 Copyright (c) Steve Scherf et al.
# Submitted via: dBpowerAMP V4.0
#
DISCID=e00b030f
DTITLE=Arrolladora Banda El Limon - La Otra Cara De La Moneda
DYEAR=2006
DGENRE=Banda
TTITLE0=Comparame
TTITLE1=La Otra Cara De La Moneda
TTITLE2=Metiendo Las Patas
TTITLE3=Redondito En Tus Brazos
TTITLE4=Aunque Me Duela
TTITLE5=Los Tres Pelones
TTITLE6=La Culpable
TTITLE7=Si Tu Amor No Vuelve
TTITLE8=Pa Que Volver
TTITLE9=Sobrevivire
TTITLE10=Parece Que Baila
TTITLE11=Pascual Sarmiento
TTITLE12=Catorce Años Nueve Meses
TTITLE13=Comparame
TTITLE14=El Caballo De Pepito
EXTD=Manuel Salazar The Loko
EXTT0=
EXTT1=
EXTT2=
EXTT3=
EXTT4=
EXTT5=
EXTT6=
EXTT7=
EXTT8=
EXTT9=
EXTT10=
EXTT11=
EXTT12=
EXTT13=
EXTT14=
PLAYORDER=
